/vscmnt/brussel_pixiu_data/_data_brussel/112/vsc11236/PredSimResults/SUBJ06opt3D/trackIG/worker_10.mot
version=1
nRows=4
nColumns=50
inDegrees=yes
endheader
                time	         pelvis_tilt	         pelvis_list	     pelvis_rotation	           pelvis_tx	           pelvis_ty	           pelvis_tz	       hip_flexion_r	     hip_adduction_r	      hip_rotation_r	        knee_angle_r	       ankle_angle_r	         mtp_angle_r	       hip_flexion_l	     hip_adduction_l	      hip_rotation_l	        knee_angle_l	       ankle_angle_l	         mtp_angle_l	    lumbar_extension	      lumbar_bending	     lumbar_rotation	 ercspn_r/activation	 intobl_r/activation	 extobl_r/activation	    abd_r/activation	    add_r/activation	hamstrings_r/activation	bifemsh_r/activation	glut_max_r/activation	iliopsoas_r/activation	rect_fem_r/activation	  vasti_r/activation	gastroc_r/activation	 soleus_r/activation	tib_ant_r/activation	 ercspn_l/activation	 intobl_l/activation	 extobl_l/activation	    abd_l/activation	    add_l/activation	hamstrings_l/activation	bifemsh_l/activation	glut_max_l/activation	iliopsoas_l/activation	rect_fem_l/activation	  vasti_l/activation	gastroc_l/activation	 soleus_l/activation	tib_ant_l/activation	
          1.04757637	         -7.46956363	         -1.80897714	          6.98016695	          1.57136456	          0.91756248	         -0.00957800	         35.18795039	         -0.83787540	         -9.19474774	         -7.86156695	          2.01181850	          0.27099925	        -12.52028353	         -1.60688229	         -2.57168035	        -10.84067768	          5.52689398	         38.73442326	         -7.50644308	          1.55685872	         -9.72902558	          0.19920334	          0.13105689	          0.00999999	          0.00999999	          0.44319787	          0.18753695	          0.19834447	          0.07633776	          0.14896953	          0.00999999	          0.00999999	          0.01889332	          0.01379675	          0.63279611	          0.22512851	          0.00999999	          0.00999999	          0.05541773	          0.00999999	          0.02425189	          0.27340255	          0.01903504	          0.80978193	          0.00999999	          0.00999999	          0.25382337	          0.37561816	          0.02559270	
          1.05805213	         -7.46556403	         -1.87372437	          7.03361521	          1.59034765	          0.91563414	         -0.00922470	         35.27668072	         -0.69674290	         -8.92224181	        -10.08978355	          1.64288738	          0.22895476	        -12.73414712	         -1.87703726	         -2.93926099	        -12.41106415	          4.14717055	         40.99012907	         -7.19684117	          1.94437380	        -10.13979576	          0.16959306	          0.11157613	          0.00999999	          0.05526369	          0.37731939	          0.17057009	          0.16886186	          0.18325358	          0.12682618	          0.00999999	          0.00999999	          0.01608495	          0.01174595	          0.72164320	          0.23457250	          0.00999999	          0.00999999	          0.04718024	          0.02049844	          0.04791841	          0.24953403	          0.01620560	          0.77055799	          0.00999999	          0.00999999	          0.21609418	          0.32258031	          0.02178851	
          1.06852790	         -7.44053938	         -1.97386819	          7.05124909	          1.60954204	          0.91393571	         -0.00874654	         35.21026237	         -0.53530996	         -8.65749779	        -12.09415547	          1.21352724	          0.21034825	        -12.71654980	         -2.20979327	         -3.32706778	        -14.42488716	          2.62282728	         43.18339276	         -6.88155373	          2.36019360	        -10.48980768	          0.17677583	          0.09499107	          0.00999999	          0.13266649	          0.37983300	          0.14521596	          0.14376164	          0.26115988	          0.10797429	          0.00999999	          0.00999999	          0.01369402	          0.00999999	          0.80680155	          0.23652087	          0.00999999	          0.00999999	          0.04016721	          0.01745148	          0.04079565	          0.22488422	          0.01379675	          0.74167294	          0.00999999	          0.00999999	          0.18397318	          0.27463084	          0.01854979	
          1.07900366	         -7.39588996	         -2.07617414	          7.03155396	          1.62868791	          0.91257740	         -0.00811942	         35.11991256	         -0.35750375	         -8.47787061	        -14.06086535	          0.71650195	          0.17387771	        -12.39851365	         -2.57617467	         -3.72503767	        -16.96982029	          0.93760979	         45.16702086	         -6.59524277	          2.76518551	        -10.77754330	          0.19312676	          0.08087126	          0.00999999	          0.20179531	          0.41331131	          0.12922683	          0.12239241	          0.34154720	          0.09192462	          0.00999999	          0.04316194	          0.01165850	          0.00999999	          0.85052636	          0.27849220	          0.00999999	          0.00999999	          0.03419661	          0.01485743	          0.03473164	          0.21999788	          0.01174595	          0.63142808	          0.00999999	          0.00999999	          0.15662677	          0.23380876	          0.01579249	
